<?xml version="1.0" encoding="utf-8"?>
<!-- Generator: Adobe Illustrator 28.0.0, SVG Export Plug-In . SVG Version: 6.00 Build 0)  -->
<svg version="1.1" id="Layer_1" xmlns="http://www.w3.org/2000/svg" xmlns:xlink="http://www.w3.org/1999/xlink" x="0px" y="0px"
	 viewBox="0 0 800 800" style="enable-background:new 0 0 800 800;" xml:space="preserve">
<style type="text/css">
	.st0{fill:#1D4ED8;}
</style>
<path class="st0" d="M458.2,732.4c34.4,0,62.3-27.9,62.3-62.3c0-57.4,46.5-103.9,103.9-103.9c34.4,0,62.3-27.9,62.3-62.3V379.2
	c0-11.5,9.3-20.8,20.8-20.8c11.5,0,20.8,9.3,20.8,20.8v124.6c0,149.1-120.9,270-270,270H167.4C110,773.9,63.5,727.4,63.5,670V130
	c0-57.4,46.5-103.9,103.9-103.9h249.3c11.5,0,20.8,9.3,20.8,20.8s-9.3,20.8-20.8,20.8H167.4c-34.4,0-62.3,27.9-62.3,62.3V670
	c0,34.4,27.9,62.3,62.3,62.3H458.2L458.2,732.4z M553.4,711.7c49.7-22.8,89.8-62.9,112.6-112.6c-12.7,5.6-26.8,8.7-41.6,8.7
	c-34.4,0-62.3,27.9-62.3,62.3C562.1,684.8,559,698.9,553.4,711.7L553.4,711.7z M645.2,150.7H749c11.5,0,20.8,9.3,20.8,20.8
	c0,11.5-9.3,20.8-20.8,20.8H645.2v103.9c0,11.5-9.3,20.8-20.8,20.8c-11.5,0-20.8-9.3-20.8-20.8V192.3H499.8
	c-11.5,0-20.8-9.3-20.8-20.8c0-11.5,9.3-20.8,20.8-20.8h103.9V46.9c0-11.5,9.3-20.8,20.8-20.8c11.5,0,20.8,9.3,20.8,20.8V150.7z
	 M250.5,275.4c-11.5,0-20.8-9.3-20.8-20.8s9.3-20.8,20.8-20.8h166.2c11.5,0,20.8,9.3,20.8,20.8s-9.3,20.8-20.8,20.8H250.5z
	 M250.5,400c-11.5,0-20.8-9.3-20.8-20.8c0-11.5,9.3-20.8,20.8-20.8h290.8c11.5,0,20.8,9.3,20.8,20.8c0,11.5-9.3,20.8-20.8,20.8
	H250.5z M250.5,524.6c-11.5,0-20.8-9.3-20.8-20.8s9.3-20.8,20.8-20.8h207.7c11.5,0,20.8,9.3,20.8,20.8s-9.3,20.8-20.8,20.8H250.5z"
	/>
</svg>
